<?xml version="1.0" encoding="UTF-8"?>
<svg id="JP" xmlns="http://www.w3.org/2000/svg" viewBox="0 0 653.16 317">
  <defs>
    <style>
      .cls-1 {
        stroke-width: 0px;
      }
    </style>
  </defs>
  <path id="Right-Path" class="cls-1" d="m543.09,44.56l110.07,113.57-110.07,113.57-8.33-15.58,95.22-97.49-95.22-97.49,8.33-16.58Z"/>
  <path id="P-Path" class="cls-1" d="m385.61,241.57V72.82h84.6c11.09,0,20.85,2.25,29.28,6.75,8.44,4.5,15.06,10.73,19.88,18.68,4.82,7.96,7.23,17.16,7.23,27.6s-2.41,18.89-7.23,26.76c-4.82,7.88-11.49,14.07-20,18.56-8.52,4.5-18.24,6.75-29.16,6.75h-49.65v63.64h-34.95Zm34.95-92.57h45.79c7.55,0,13.62-2.09,18.2-6.27,4.58-4.18,6.87-9.72,6.87-16.63s-2.29-12.69-6.87-16.88c-4.58-4.18-10.65-6.27-18.2-6.27h-45.79v46.04Z"/>
  <path id="J-Path" class="cls-1" d="m288.24,243.98c-16.87,0-31.17-4.26-42.9-12.78-11.73-8.52-20.17-20.73-25.31-36.64l32.3-12.29c3.53,10.29,8.23,17.84,14.1,22.66,5.86,4.82,13.14,7.23,21.81,7.23,10.44,0,18.84-3.38,25.19-10.12,6.35-6.75,9.52-15.75,9.52-27v-102.21h34.95v103.18c0,13.66-2.89,25.59-8.68,35.8-5.78,10.21-13.9,18.12-24.34,23.75-10.45,5.63-22.66,8.44-36.63,8.44Z"/>
  <path id="Slash-Path" class="cls-1" d="m127.49,317L232.56,0h11.76l-105.07,317h-11.76Z"/>
  <path id="Left-Path" class="cls-1" d="m110.07,272.21L0,158.63,110.07,45.06l8.33,15.58L23.17,158.13l95.22,97.49-8.33,16.58Z"/>
</svg>